<svg xmlns="http://www.w3.org/2000/svg" version="1.1" xmlns:xlink="http://www.w3.org/1999/xlink" xmlns:svgjs="http://svgjs.dev/svgjs" width="1500" height="1500" viewBox="0 0 1500 1500"><rect width="1500" height="1500" fill="#111111"></rect><g transform="matrix(0.6666666666666666,0,0,0.6666666666666666,249.39393939393938,438.5856950067477)"><svg viewBox="0 0 396 247" data-background-color="#111111" preserveAspectRatio="xMidYMid meet" height="935" width="1500" xmlns="http://www.w3.org/2000/svg" xmlns:xlink="http://www.w3.org/1999/xlink"><g id="tight-bounds" transform="matrix(1,0,0,1,0.2400000000000091,-0.09999999999999432)"><svg viewBox="0 0 395.52 247.2" height="247.2" width="395.52"><g><svg></svg></g><g><svg viewBox="0 0 395.52 247.2" height="247.2" width="395.52"><g transform="matrix(1,0,0,1,85.18090762331838,47.215199999999996)"><svg viewBox="0 0 225.15818475336323 152.7696" height="152.7696" width="225.15818475336323"><g><svg viewBox="0 0 225.15818475336323 152.7696" height="152.7696" width="225.15818475336323"><g><svg viewBox="0 0 225.15818475336323 152.7696" height="152.7696" width="225.15818475336323"><g><svg viewBox="0 0 225.15818475336323 152.7696" height="152.7696" width="225.15818475336323"><g id="textblocktransform"><svg viewBox="0 0 225.15818475336323 152.7696" height="152.7696" width="225.15818475336323" id="textblock"><g><svg viewBox="0 0 225.15818475336323 152.7696" height="152.7696" width="225.15818475336323"><g transform="matrix(1,0,0,1,0,0)"><svg width="225.15818475336323" viewBox="0.35 -33 49.3 33.45" height="152.7696" data-palette-color="#ffffff"><path d="M16.25-33L16.25-33 16.95-31.05 12.7-30Q13.6-26.55 14.4-23.8 15.2-21.05 16-18.63 16.8-16.2 17.73-13.73 18.65-11.25 19.8-8.3L19.8-8.3 17.6 0.45 14.95 0.45Q13.5-4.25 12.25-8.15 11-12.05 9.8-15.55 8.6-19.05 7.38-22.58 6.15-26.1 4.75-30L4.75-30 0.35-31.05 1.05-33Q2.8-32.85 4.35-32.83 5.9-32.8 8.35-32.8L8.35-32.8Q10.75-32.8 12.63-32.85 14.5-32.9 16.25-33ZM25.05-33L27.85-33 26.9-24.7Q25.2-20.2 23.68-16.28 22.15-12.35 20.68-8.35 19.2-4.35 17.6 0.45L17.6 0.45 16.2-4.6Q18.15-9.6 19.63-14.03 21.1-18.45 22.4-23 23.7-27.55 25.05-33L25.05-33ZM25.05-33L27.85-33Q29.2-28.85 30.3-25.73 31.4-22.6 32.45-19.95 33.5-17.3 34.65-14.53 35.8-11.75 37.25-8.3L37.25-8.3 34.5-1.3 32.9 0.4Q31.35-3.85 30.13-7.05 28.9-10.25 27.88-12.9 26.85-15.55 25.8-18.13 24.75-20.7 23.45-23.65L23.45-23.65 25.05-33ZM49-33L49-33 49.65-31.05 45.35-30Q44.05-26.5 42.93-23.18 41.8-19.85 40.68-16.3 39.55-12.75 38.33-8.68 37.1-4.6 35.55 0.4L35.55 0.4 32.9 0.4 34.15-6.25Q36.1-11.35 37.85-17.57 39.6-23.8 40.45-30L40.45-30 35.8-31.05 36.5-33Q38.2-32.95 39.88-32.88 41.55-32.8 43.2-32.8L43.2-32.8Q44.95-32.8 46.3-32.88 47.65-32.95 49-33Z" opacity="1" transform="matrix(1,0,0,1,0,0)" fill="#ffffff" class="wordmark-text-0" data-fill-palette-color="primary" id="text-0"></path></svg></g></svg></g></svg></g></svg></g></svg></g></svg></g></svg></g><g><path d="M0 123.6c0-68.262 55.338-123.6 123.6-123.6 30.402 0 58.24 10.976 79.768 29.183l-11.147 0c-19.26-14.022-42.974-22.294-68.621-22.295-64.458 0-116.712 52.254-116.712 116.712 0 64.458 52.254 116.712 116.712 116.712 25.647 0 49.361-8.272 68.621-22.295l11.147 0c-21.528 18.206-49.366 29.183-79.768 29.183-68.262 0-123.6-55.338-123.6-123.6z" fill="#ffffff" stroke="transparent" data-fill-palette-color="tertiary"></path></g></svg></g><defs></defs></svg><rect width="395.52" height="247.2" fill="none" stroke="none" visibility="hidden"></rect></g></svg></g></svg>