<svg xmlns="http://www.w3.org/2000/svg" version="1.1" xmlns:xlink="http://www.w3.org/1999/xlink" xmlns:svgjs="http://svgjs.dev/svgjs" width="1500" height="1500" viewBox="0 0 1500 1500"><rect width="1500" height="1500" fill="#ffffff"></rect><g transform="matrix(0.6666666666666666,0,0,0.6666666666666666,249.67221712337738,281.04669365722003)"><svg viewBox="0 0 263 247" data-background-color="#ffffff" preserveAspectRatio="xMidYMid meet" height="1408" width="1500" xmlns="http://www.w3.org/2000/svg" xmlns:xlink="http://www.w3.org/1999/xlink"><g id="tight-bounds" transform="matrix(1,0,0,1,0.08620689655174374,-0.09999999999999432)"><svg viewBox="0 0 262.8275862068965 247.2" height="247.2" width="262.8275862068965"><g><svg viewBox="0 0 262.8275862068965 247.2" height="247.2" width="262.8275862068965"><g><svg viewBox="0 0 262.8275862068965 247.2" height="247.2" width="262.8275862068965"><g id="textblocktransform"><svg viewBox="0 0 262.8275862068965 247.2" height="247.2" width="262.8275862068965" id="textblock"><g><svg viewBox="0 0 262.8275862068965 247.2" height="247.2" width="262.8275862068965"><g transform="matrix(1,0,0,1,0,0)"><svg width="262.8275862068965" viewBox="1.5 -34.8 37 34.8" height="247.2" data-palette-color="#915eff"><path d="M29.15-34.8L38.5-34.8 30.1 0 17.35 0 19.3-25.55 14.15 0 1.5 0 3-34.8 12.5-34.8 9.8-7.2 15.95-34.8 25.65-34.8 23.65-7.2 29.15-34.8Z" opacity="1" transform="matrix(1,0,0,1,0,0)" fill="#915eff" class="wordmark-text-0" data-fill-palette-color="primary" id="text-0"></path></svg></g></svg></g></svg></g></svg></g><g></g></svg></g><defs></defs></svg><rect width="262.8275862068965" height="247.2" fill="none" stroke="none" visibility="hidden"></rect></g></svg></g></svg>